<svg xmlns="http://www.w3.org/2000/svg" viewBox="0 0 63.97 63.89"><defs><style>.cls-1{fill:#9fa0a7;}</style></defs><title>direct</title><g id="Camada_2" data-name="Camada 2"><g id="Camada_1-2" data-name="Camada 1"><path class="cls-1" d="M44.66,63.89a4.22,4.22,0,0,1-3-1.28l-.33-.32-10-29.45a2.62,2.62,0,0,0-1.7-1.67l-28-8.78L1.26,22a4.32,4.32,0,0,1,2-7.23L58.54.15a4.27,4.27,0,0,1,4.17,1.13,4.28,4.28,0,0,1,1.11,4.18l-15,55.24a4.31,4.31,0,0,1-4.2,3.19ZM4,19l26.77,8.4a6.64,6.64,0,0,1,4.3,4.2L44.7,59.89h.07a.3.3,0,0,0,.23-.23L60,4.42a.34.34,0,0,0-.08-.32A.32.32,0,0,0,59.56,4L4.25,18.67A.32.32,0,0,0,4,18.9.09.09,0,0,0,4,19Z"/><path class="cls-1" d="M40.62,25.18a2,2,0,0,1-1.42-3.42l5-5A2,2,0,0,1,47,19.59l-5,5A2,2,0,0,1,40.62,25.18Z"/><path class="cls-1" d="M2.53,43.19a2,2,0,0,1-1.41-3.42l7-7a2,2,0,0,1,2.82,2.83l-7,7A2,2,0,0,1,2.53,43.19Z"/><path class="cls-1" d="M4.53,61.19a2,2,0,0,1-1.41-3.42l20.09-20A2,2,0,0,1,26,40.59L5.94,60.6A2,2,0,0,1,4.53,61.19Z"/><path class="cls-1" d="M22.53,63.19a2,2,0,0,1-1.41-3.42l7-7a2,2,0,0,1,2.82,2.83l-7,7A2,2,0,0,1,22.53,63.19Z"/></g></g></svg>