<svg xmlns="http://www.w3.org/2000/svg" viewBox="0 0 67.7 62"><defs><style>.cls-1{fill:#9fa0a7;}</style></defs><title>hearth</title><g id="Camada_2" data-name="Camada 2"><g id="Camada_1-2" data-name="Camada 1"><path class="cls-1" d="M47.2,0A20.05,20.05,0,0,0,33.85,5.08,20,20,0,0,0,20.5,0,20.78,20.78,0,0,0,0,21C0,33.64,5.59,51,32.25,61.85A2,2,0,0,0,33,62h1.7a2.06,2.06,0,0,0,.76-.15C62.11,51,67.7,33.64,67.7,21A20.77,20.77,0,0,0,47.2,0ZM34,58.15a.31.31,0,0,0-.1.05l-.09-.05C9.16,48.13,4,32.42,4,21A16.78,16.78,0,0,1,20.5,4,16.17,16.17,0,0,1,32.26,9.07a2.39,2.39,0,0,0,3.19,0A16.13,16.13,0,0,1,47.2,4,16.78,16.78,0,0,1,63.7,21C63.7,32.42,58.54,48.13,34,58.15Z"/></g></g></svg>